<?xml version="1.0" encoding="UTF-8" standalone="no"?>
<svg
   xmlns:dc="http://purl.org/dc/elements/1.1/"
   xmlns:cc="http://creativecommons.org/ns#"
   xmlns:rdf="http://www.w3.org/1999/02/22-rdf-syntax-ns#"
   xmlns:svg="http://www.w3.org/2000/svg"
   xmlns="http://www.w3.org/2000/svg"
   xmlns:sodipodi="http://sodipodi.sourceforge.net/DTD/sodipodi-0.dtd"
   xmlns:inkscape="http://www.inkscape.org/namespaces/inkscape"
   version="1.1"
   id="svg2"
   width="440"
   height="480"
   viewBox="0 0 440 480"
   sodipodi:docname="Legend.svg"
   inkscape:version="1.0.2-2 (e86c870879, 2021-01-15)">
  <metadata
     id="metadata8">
    <rdf:RDF>
      <cc:Work
         rdf:about="">
        <dc:format>image/svg+xml</dc:format>
        <dc:type
           rdf:resource="http://purl.org/dc/dcmitype/StillImage" />
        <dc:title></dc:title>
      </cc:Work>
    </rdf:RDF>
  </metadata>
  <defs
     id="defs6" />
  <sodipodi:namedview
     pagecolor="#ffffff"
     bordercolor="#666666"
     borderopacity="1"
     objecttolerance="10"
     gridtolerance="10"
     guidetolerance="10"
     inkscape:pageopacity="0"
     inkscape:pageshadow="2"
     inkscape:window-width="1920"
     inkscape:window-height="1001"
     id="namedview4"
     showgrid="false"
     inkscape:snap-global="false"
     inkscape:zoom="1.1092738"
     inkscape:cx="181.01127"
     inkscape:cy="281.85078"
     inkscape:window-x="-9"
     inkscape:window-y="-9"
     inkscape:window-maximized="1"
     inkscape:current-layer="g10" />
  <g
     inkscape:groupmode="layer"
     inkscape:label="Image"
     id="g10">
    <path
       style="fill:#000000"
       d="m 57.730199,416.64016 c -15.374793,-6.48319 -22.503567,-17.93071 -21.518727,-34.55518 0.544816,-9.1967 3.029976,-15.22186 8.909272,-21.60015 15.923903,-17.27539 46.218084,-12.84304 56.549586,8.27378 3.8504,7.86995 4.44902,20.28136 1.37184,28.44302 -4.857612,12.88395 -16.535766,20.85015 -31.54217,21.51636 -6.737869,0.29913 -8.91028,-0.0287 -13.769801,-2.07783 z m 6.798498,-20.01979 c 0.565783,-0.6162 2.236554,-2.1956 3.712825,-3.50976 l 2.684129,-2.38939 7.356248,7.13295 7.356249,7.13296 2.886615,-3.01298 2.886616,-3.01297 -7.248853,-7.29756 -7.248854,-7.29756 6.969516,-7.43303 6.969516,-7.43303 -2.572312,-2.70707 c -3.131528,-3.29558 -3.713096,-3.04132 -11.752949,5.13841 l -5.972557,6.07646 -7.25803,-7.20959 -7.258031,-7.20959 -3.039462,2.91199 -3.039462,2.91199 7.177044,7.22526 7.177043,7.22527 -6.656994,7.19017 C 53.995647,395.00789 51,398.72218 51,399.30728 c 0,0.5851 0.969038,2.09531 2.153419,3.35603 l 2.153418,2.29221 4.096582,-3.60739 c 2.253119,-1.98406 4.559494,-4.11155 5.125278,-4.72776 z M 183.5,397.82923 C 176.9138,394.01482 179.96274,386 188,386 c 4.01929,0 4.51361,-0.49799 3.39301,-3.41821 -0.76857,-2.00288 -4.78045,-2.05149 -6.75015,-0.0818 C 183.04021,384.10265 180,384.5442 180,383.17431 180,381.01308 184.84163,378 188.31445,378 194.40093,378 196,380.50005 196,390.01588 v 8.01589 l -2.75,-0.15516 c -1.5125,-0.0853 -3.875,0.12971 -5.25,0.47788 -1.375,0.34818 -3.4,0.11181 -4.5,-0.52526 z M 190.8,393.8 c 0.66,-0.66 1.2,-2.01 1.2,-3 0,-1.39352 -0.79746,-1.8 -3.53138,-1.8 -3.66095,0 -5.19064,1.67607 -4.10699,4.5 0.68902,1.79558 4.75341,1.98496 6.43837,0.3 z m 32.44239,3.68168 c -5.72969,-2.44751 -7.12731,-11.08813 -2.6535,-16.40495 C 225.69397,375.00968 235,378.27599 235,386.13486 235,388.99452 234.98757,389 228.5,389 c -6.69217,0 -7.37061,0.50474 -5.46482,4.06574 1.18662,2.21722 6.81071,2.68837 8.76482,0.73426 0.81847,-0.81847 1.52546,-0.87454 2.22363,-0.17637 0.69817,0.69817 0.45971,1.51392 -0.75,2.56569 -2.70597,2.35267 -6.42681,2.83204 -10.03124,1.29236 z M 231,384.7 c 0,-3.47952 -4.72401,-4.83313 -7.42857,-2.12857 C 221.00415,385.13871 221.73984,386 226.5,386 c 3.02564,0 4.5,-0.42593 4.5,-1.3 z m 12.357,13.2991 c -5.50939,-2.19935 -7.34002,-12.20838 -3.19636,-17.47619 1.9087,-2.42651 2.66662,-2.68977 6.5,-2.25769 L 251,378.75433 v -4.37717 C 251,370.66667 251.30461,370 253,370 c 1.90487,0 2,0.66667 2,14.01588 v 14.01589 l -2.75,-0.18714 c -1.5125,-0.10293 -3.65,0.0822 -4.75,0.41141 -1.1,0.3292 -2.96435,0.21358 -4.143,-0.25694 z M 249.8,393.8 c 0.66,-0.66 1.2,-3.27 1.2,-5.8 0,-4.85078 -1.2676,-7 -4.12857,-7 -2.96696,0 -4.87143,2.88184 -4.87143,7.37143 0,4.67601 1.32555,6.62857 4.5,6.62857 1.155,0 2.64,-0.54 3.3,-1.2 z m -89.57903,-9.05 0.27903,-13.25 8.25,-0.29044 c 7.73273,-0.27223 8.25,-0.16251 8.25,1.75 C 177,374.8042 176.37628,375 170.5,375 H 164 v 4 4 h 5.5 c 4.83333,0 5.5,0.24242 5.5,2 0,1.75758 -0.66667,2 -5.5,2 H 164 v 5.5 c 0,4.85956 -0.23627,5.5 -2.02903,5.5 -1.95065,0 -2.01824,-0.51181 -1.75,-13.25 z M 201,388 c 0,-9.33333 0.13333,-10 2,-10 1.86667,0 2,0.66667 2,10 0,9.33333 -0.13333,10 -2,10 -1.86667,0 -2,-0.66667 -2,-10 z m 9,-4 c 0,-13.33333 0.0952,-14 2,-14 1.90476,0 2,0.66667 2,14 0,13.33333 -0.0952,14 -2,14 -1.90476,0 -2,-0.66667 -2,-14 z m -8.81184,-10.73852 C 201.69017,370.65475 205,370.36403 205,372.92668 205,374.35777 204.35777,375 202.92668,375 c -1.4311,0 -1.96962,-0.53852 -1.73852,-1.73852 z M 58.299837,322.19596 c -9.739558,-3.47408 -16.076433,-9.05551 -21.10446,-18.58852 -2.415385,-4.5795 -2.690143,-6.1411 -2.658096,-15.10744 0.04239,-11.8595 1.845646,-16.78782 8.90346,-24.33319 14.425304,-15.42182 39.694628,-15.42031 54.121547,0.003 7.054212,7.54153 8.857902,12.47162 8.901202,24.32996 0.0347,9.50886 -0.13043,10.30786 -3.36259,16.26834 -6.632853,12.23199 -16.752061,18.3989 -31.1009,18.95394 -6.396255,0.24743 -9.787037,-0.13028 -13.700163,-1.52609 z m 29.121314,-10.75997 c 1.394649,-1.39465 1.403154,-1.87507 0.07854,-4.43659 -2.089336,-4.04033 -3.047043,-4.33918 -4.890308,-1.526 -2.109529,3.21955 -2.046884,6.26562 0.140616,6.83727 2.927219,0.76497 3.055533,0.74094 4.671151,-0.87468 z M 90.630286,297.75 c -0.331637,-1.2375 -0.609121,-3.95795 -0.616631,-6.04545 C 89.992112,285.7165 86.605572,283 79.162086,283 c -5.087819,0 -6.003013,-0.2837 -6.451835,-2 -0.312919,-1.1966 -1.364016,-2 -2.616631,-2 C 68.817475,279 68,278.35785 68,277.3554 c 0,-1.41884 0.887674,-1.56172 6.466188,-1.04079 6.452594,0.60255 8.921199,-0.32722 6.718108,-2.53031 -0.810174,-0.81018 -21.303114,-1.38491 -30.25762,-0.84859 -0.590328,0.0354 -0.919649,0.85179 -0.731823,1.81429 0.285724,1.46417 1.466154,1.75 7.227181,1.75 4.612823,0 7.027444,0.41261 7.315156,1.25 0.273373,0.79566 -0.543527,1.25 -2.247476,1.25 -1.835949,0 -2.841265,0.62833 -3.199965,2 -0.441305,1.68755 -1.364016,2 -5.90638,2 H 48 v 5 5 h 6.10608 c 5.322085,0 6.35857,0.32099 8.07258,2.5 2.578596,3.27815 6.280365,3.25527 8.447518,-0.0522 1.299741,-1.98365 2.363059,-2.4849 4.773053,-2.25 2.691806,0.26237 3.142098,0.73088 3.414127,3.55223 l 0.313359,3.25 h 6.053273 c 5.789461,0 6.026994,-0.0981 5.450296,-2.25 z m 96.612104,2.73168 c -5.72969,-2.44751 -7.12731,-11.08813 -2.6535,-16.40495 C 189.69397,278.00968 199,281.27599 199,289.13486 199,291.99452 198.98757,292 192.5,292 c -6.69217,0 -7.37061,0.50474 -5.46482,4.06574 1.18662,2.21722 6.81071,2.68837 8.76482,0.73426 0.81847,-0.81847 1.52546,-0.87454 2.22363,-0.17637 0.69817,0.69817 0.45971,1.51392 -0.75,2.56569 -2.70597,2.35267 -6.42681,2.83204 -10.03124,1.29236 z M 195,287.7 c 0,-3.47952 -4.72401,-4.83313 -7.42857,-2.12857 C 185.00415,288.13871 185.73984,289 190.5,289 c 3.02564,0 4.5,-0.42593 4.5,-1.3 z m 31,13.03934 c -1.85203,-0.95219 -2.57897,-2.22669 -2.8047,-4.91732 -0.3749,-4.46874 2.39411,-6.82202 8.02721,-6.82202 3.90339,0 4.90331,-1.47418 2.57749,-3.8 -1.68496,-1.68496 -5.74935,-1.49558 -6.43837,0.3 C 226.72469,287.15984 223,287.58682 223,286 c 0,-2.37694 4.11559,-5 7.84501,-5 5.90605,0 7.57298,2.52058 8.00844,12.10966 l 0.35902,7.90585 -3.35623,-0.12597 c -1.84593,-0.0693 -4.25624,0.15777 -5.35624,0.50458 -1.1,0.3468 -3.125,0.0522 -4.5,-0.65478 z M 233.8,296.8 c 0.66,-0.66 1.2,-2.01 1.2,-3 0,-1.37805 -0.79176,-1.8 -3.37756,-1.8 -4.14649,0 -6.47545,2.26726 -4.62244,4.5 1.49539,1.80183 5.13749,1.96251 6.8,0.3 z m 16.2471,4.25027 c -0.7991,-0.50551 -2.7116,-0.66737 -4.25,-0.35969 L 243,301.25 v -14.125 c 0,-13.45833 0.0944,-14.125 2,-14.125 1.74359,0 2,0.66667 2,5.2 0,4.04444 0.26667,4.93333 1.2,4 0.66,-0.66 2.65234,-1.2 4.42742,-1.2 4.69751,0 7.38173,3.79732 7.34078,10.38486 -0.0336,5.40759 -1.09048,7.55468 -4.65246,9.4518 -2.61118,1.39072 -3.3599,1.42108 -5.26864,0.21361 z m 5.80644,-6.41787 c 2.77342,-5.81228 -1.25633,-12.1368 -6.27588,-9.84974 -2.2514,1.02581 -2.57766,1.78472 -2.57766,5.9959 0,2.65179 0.55934,5.38078 1.24298,6.06442 2.10315,2.10315 6.10715,0.94014 7.61056,-2.21058 z m 38.76784,5.84612 C 293.41722,299.27437 293,296.94557 293,291.42857 293,284.66667 292.82051,284 291,284 c -1.11111,0 -2,-0.66667 -2,-1.5 0,-0.83333 0.88889,-1.5 2,-1.5 1.48186,0 2,-0.66667 2,-2.57332 0,-3.28234 3.34535,-2.99021 3.81955,0.33354 0.17575,1.23188 0.96325,2.23978 1.75,2.23978 0.78675,0 1.43045,0.675 1.43045,1.5 0,0.825 -0.675,1.5 -1.5,1.5 -1.19048,0 -1.5,1.44444 -1.5,7 0,5.70055 0.29207,7 1.57332,7 2.07267,0 1.43724,3.37429 -0.71343,3.78847 -0.88942,0.17128 -2.34675,-0.41819 -3.23851,-1.30995 z m 12.69399,0.50518 C 305.14703,300.1193 303,297.15233 303,295.02029 303,292.47668 307.92262,289 311.5241,289 c 3.17691,0 3.57628,-0.27267 3.29545,-2.25 -0.39446,-2.77744 -5.47279,-3.81721 -6.43222,-1.31697 -0.75537,1.96846 -4.38733,2.07084 -4.38733,0.12367 0,-4.05247 10.21532,-6.21732 13.24411,-2.8067 1.05932,1.19287 1.66787,4.37018 1.9115,9.98025 l 0.35743,8.23026 -3.00652,-0.18415 c -1.65359,-0.10129 -3.90652,0.0999 -5.00652,0.44703 -1.1,0.34716 -2.98308,0.2393 -4.18463,-0.23969 z m 6.10284,-3.59069 C 314.2882,297.05917 315,295.70917 315,294.39301 315,292.4234 314.49086,292 312.12244,292 c -3.26119,0 -5.63128,2.23161 -4.7657,4.48727 0.59977,1.56297 3.29805,1.96616 6.06147,0.90574 z M 327,300 c -1.61905,-1.61905 -2,-3.33333 -2,-9 0,-5.55556 -0.30952,-7 -1.5,-7 -0.825,0 -1.5,-0.675 -1.5,-1.5 0,-0.825 0.675,-1.5 1.5,-1.5 0.93333,0 1.5,-0.94444 1.5,-2.5 0,-1.83333 0.53333,-2.5 2,-2.5 1.46667,0 2,0.66667 2,2.5 0,1.83333 0.53333,2.5 2,2.5 1.11111,0 2,0.66667 2,1.5 0,0.83333 -0.88889,1.5 -2,1.5 -1.80952,0 -2,0.66667 -2,7 0,6.33333 0.19048,7 2,7 2.37321,0 2.68424,2.52345 0.41821,3.39301 C 329.22571,302.23435 329.23834,302.23834 327,300 Z m 14.5,1.05464 c -4.84527,-1.98313 -7.06376,-7.429 -5.43273,-13.33608 1.17414,-4.25239 4.1918,-6.71856 8.22098,-6.71856 4.09939,0 6.34716,1.51537 7.60657,5.12811 C 353.86255,291.77275 353.6344,292 346,292 c -3.85,0 -7,0.34987 -7,0.77749 0,0.42763 0.70052,1.77763 1.5567,3 1.68265,2.40231 6.24306,3.02275 8.15617,1.10964 1.19242,-1.19242 3.28713,-0.41313 3.28713,1.22291 0,0.94622 -6.07757,3.95951 -7.71788,3.82657 -0.43017,-0.0349 -1.68212,-0.43175 -2.78212,-0.88197 z m 7.5,-12.62038 c 0,-3.63072 -5.23349,-5.80077 -7.8,-3.23426 -2.46999,2.46999 -1.31499,3.8 3.3,3.8 2.475,0 4.5,-0.25458 4.5,-0.56574 z m 11.03743,12.3172 c -5.27449,-2.72703 -6.36539,-12.87557 -1.89934,-17.66931 1.65651,-1.77805 2.95051,-2.18841 5.98756,-1.89878 L 368,281.55285 v -4.27642 C 368,273.66667 368.31179,273 370,273 c 1.90449,0 2,0.66667 2,13.95974 v 13.95975 l -2.75,-0.0779 c -1.5125,-0.0428 -3.65,0.20582 -4.75,0.55259 -1.1,0.34677 -3.10816,0.0575 -4.46257,-0.64272 z m 7.75949,-9.47063 c 0.28795,-6.03147 0.21495,-6.23975 -2.41872,-6.90076 -4.91458,-1.23348 -7.80412,4.73929 -5.37884,11.11824 0.83866,2.20586 1.52203,2.57811 4.25,2.3151 3.24865,-0.31322 3.25082,-0.31722 3.54756,-6.53258 z M 160.22097,287.75 160.5,274.5 h 6.83663 c 6.25098,0 7.04336,0.24035 9.25,2.80576 3.07208,3.57157 3.06919,7.12933 -0.008,10.20679 l -2.42164,2.42164 3.04304,5.61836 3.04303,5.61837 -2.37139,-0.33546 c -1.65144,-0.23361 -3.1304,-1.77669 -4.8714,-5.08257 -2.19851,-4.17461 -2.89194,-4.74745 -5.75,-4.75 -3.23372,-0.003 -3.25,0.0222 -3.25,4.99711 0,4.35717 -0.26086,5 -2.02903,5 -1.95065,0 -2.01824,-0.51181 -1.75,-13.25 z m 13.2076,-2.32143 C 177.139,281.71814 174.57206,278 168.3,278 H 164 v 4.5 4.5 h 3.92857 c 2.2381,0 4.60476,-0.67619 5.5,-1.57143 z M 203,287 c 0,-11.77778 0.2381,-14 1.5,-14 1.13473,0 1.5,1.22613 1.5,5.03518 0,4.66826 0.14095,4.95975 1.93426,4 2.86928,-1.53559 7.63886,-1.25447 9.1264,0.53791 0.74859,0.902 1.49423,5.16806 1.74784,10 C 219.23179,300.6378 219.15945,301 217.1254,301 215.1523,301 215,300.4769 215,293.7 215,286.20521 214.0614,284 210.87143,284 207.35715,284 206,286.80583 206,294.07143 206,299.56349 205.689,301 204.5,301 c -1.2619,0 -1.5,-2.22222 -1.5,-14 z m 62,4 c 0,-8.22222 0.26667,-10 1.5,-10 1.23333,0 1.5,1.77778 1.5,10 0,8.22222 -0.26667,10 -1.5,10 -1.23333,0 -1.5,-1.77778 -1.5,-10 z m 9,-4 c 0,-11.77778 0.2381,-14 1.5,-14 1.2619,0 1.5,2.22222 1.5,14 0,11.77778 -0.2381,14 -1.5,14 -1.2619,0 -1.5,-2.22222 -1.5,-14 z m 9,4 c 0,-9.33333 0.13333,-10 2,-10 1.86667,0 2,0.66667 2,10 0,9.33333 -0.13333,10 -2,10 -1.86667,0 -2,-0.66667 -2,-10 z m -18.51963,-14.03176 c -0.38836,-0.62838 -0.23556,-1.61305 0.33954,-2.18815 1.3439,-1.3439 4.47714,-0.17169 3.93038,1.47044 -0.5566,1.67168 -3.38637,2.14732 -4.26992,0.71771 z M 283,276 c 0,-1.50615 0.52215,-2.04609 1.75,-1.80963 0.9625,0.18536 1.75,0.99969 1.75,1.80963 0,0.80994 -0.7875,1.62427 -1.75,1.80963 C 283.52215,278.04609 283,277.50615 283,276 Z M 61.024244,226.45845 c -7.349536,-2.0576 -12.768271,-5.37222 -17.920874,-10.96213 -6.88481,-7.46914 -8.603503,-12.26331 -8.6026,-23.99632 6.96e-4,-9.03523 0.272804,-10.51671 2.820441,-15.35577 3.640262,-6.91441 10.266269,-13.30338 17.46121,-16.83654 C 59.890867,156.79912 61.565369,156.5 70.5,156.5 c 9.025152,0 10.579599,0.28458 15.945527,2.91921 7.29507,3.58183 13.544589,9.67587 17.170443,16.74329 3.88589,7.57425 4.5033,19.87753 1.40936,28.08416 -6.366881,16.888 -26.576744,27.08996 -44.001086,22.21179 z m 26.72165,-11.60434 c 0.861192,-0.8612 0.652903,-2.11224 -0.838343,-5.03532 -1.09133,-2.13919 -2.358389,-3.65819 -2.815686,-3.37557 -1.448857,0.89545 -3.34327,6.45925 -2.737131,8.03882 0.684382,1.78347 4.743454,2.01977 6.39116,0.37207 z M 90.186295,198 c -0.184956,-3.24273 -1.047973,-6.52603 -2.102805,-8 -1.552799,-2.1698 -2.667049,-2.53905 -8.436295,-2.79569 C 73.819336,186.94507 73,186.66773 73,184.95431 73,183.5736 72.31515,183 70.666667,183 c -3.009715,0 -3.935792,-0.9708 -2.535546,-2.65799 1.34638,-1.62229 6.230259,-1.75416 9.051285,-0.24439 1.590366,0.85114 2.388138,0.76041 3.552583,-0.40404 0.825913,-0.82591 1.266418,-1.88234 0.978901,-2.34762 -0.776677,-1.25686 -31.010131,-0.95724 -31.433049,0.31152 -0.601014,1.80304 2.623585,3.83809 3.961541,2.50014 1.235491,-1.23549 6.558669,-1.55493 9.175831,-0.55063 2.579041,0.98967 1.86234,3.39301 -1.011833,3.39301 -1.752615,0 -2.76321,0.64852 -3.116631,2 -0.441305,1.68755 -1.364016,2 -5.90638,2 L 48,187 v 5 5 h 6.135329 c 5.259839,0 6.465946,0.35674 8.452251,2.5 2.890507,3.11891 3.53059,3.11289 7.311737,-0.0687 2.04067,-1.71712 3.972428,-2.46307 5.826725,-2.25 2.327554,0.26744 2.824961,0.84945 3.09089,3.61664 l 0.316931,3.2979 5.683069,-0.2979 L 90.5,203.5 Z M 191.5,205.05464 c -4.84527,-1.98313 -7.06376,-7.429 -5.43273,-13.33608 1.17414,-4.25239 4.1918,-6.71856 8.22098,-6.71856 4.09939,0 6.34716,1.51537 7.60657,5.12811 C 203.86255,195.77275 203.6344,196 196,196 c -3.85,0 -7,0.34987 -7,0.77749 0,0.42763 0.70052,1.77763 1.5567,3 1.68265,2.40231 6.24306,3.02275 8.15617,1.10964 1.19242,-1.19242 3.28713,-0.41313 3.28713,1.22291 0,0.94622 -6.07757,3.95951 -7.71788,3.82657 -0.43017,-0.0349 -1.68212,-0.43175 -2.78212,-0.88197 z m 7.5,-12.62038 c 0,-3.63072 -5.23349,-5.80077 -7.8,-3.23426 -2.46999,2.46999 -1.31499,3.8 3.3,3.8 2.475,0 4.5,-0.25458 4.5,-0.56574 z m -38.77903,-0.67191 c 0.36523,-17.32735 1.27085,-17.71504 10.01601,-4.28781 l 6.26302,9.61616 0.28621,-9.54535 c 0.26155,-8.72285 0.45543,-9.54535 2.25,-9.54535 1.85474,0 1.96379,0.74965 1.96379,13.5 0,12.51501 -0.13628,13.5 -1.86787,13.5 -1.25596,0 -3.95862,-3.17291 -8.25,-9.68549 l -6.38213,-9.6855 -0.28621,9.6855 C 163.95045,204.22594 163.76831,205 161.93476,205 c -1.90411,0 -1.98039,-0.58924 -1.71379,-13.23765 z m 47.30719,4.5459 c -1.44562,-4.84454 -2.81672,-9.37075 -3.04689,-10.05825 -0.23863,-0.71276 0.41094,-1.25 1.51137,-1.25 1.46022,0 2.30435,1.26098 3.46862,5.1815 0.84631,2.84983 1.53874,5.86483 1.53874,6.7 0,2.85977 1.7586,-0.31142 3.43593,-6.19584 2.25646,-7.91614 4.28161,-7.43158 7.13416,1.707 l 2.1476,6.8802 1.74888,-7.13643 C 226.91242,186.23649 227.56351,185 229.22435,185 c 1.43798,0 1.86613,0.49735 1.50649,1.75 -0.27633,0.9625 -1.56307,5.4625 -2.85943,10 -3.10486,10.86762 -4.94122,11.12292 -7.98261,1.10981 l -2.16876,-7.14018 -2.14878,6.88395 c -3.11388,9.97579 -4.75882,9.71088 -8.0431,-1.29533 z M 262.46014,97.25 c 0.37076,-0.9625 3.40022,-9.7375 6.73212,-19.5 C 274.76108,61.43334 275.44205,60 277.62514,60 278.93131,60 280,60.562188 280,61.249308 c 0,0.687119 -2.73739,9.462119 -6.0831,19.5 L 267.83381,99 h -3.02389 c -2.47004,0 -2.90043,-0.32053 -2.34978,-1.75 z M 75.198089,95.327186 c -3.762946,-1.854486 -5.909542,-5.39211 -6.657834,-10.972213 -1.213661,-9.050428 5.014584,-15.900611 13.719876,-15.08991 5.351337,0.498356 8.344028,2.64754 10.377885,7.452818 3.001437,7.091324 0.443612,15.373591 -5.722822,18.530565 -4.226274,2.163687 -7.442669,2.185301 -11.717105,0.07874 z M 85.809118,83.528878 C 86.295989,76.062035 81.133033,72.116581 77.556704,77.222506 75.686076,79.893201 75.51518,86.006443 77.25,88.193837 c 3.604629,4.544993 8.119022,2.084523 8.559118,-4.664959 z m 38.477292,12.77016 c -1.21748,-0.235729 -3.54514,-1.67245 -5.17259,-3.192714 -5.24968,-4.903938 -5.369,-14.550786 -0.25082,-20.279024 2.22349,-2.488519 3.75357,-3.18013 7.92155,-3.58062 4.86552,-0.467514 5.37064,-0.291492 8.69061,3.028478 C 138.48659,75.286587 139,76.470015 139,80.4 V 85 h -8 c -6.12841,0 -8,0.322278 -8,1.377555 0,3.483443 7.33466,5.249446 10.58808,2.549345 1.15266,-0.956626 1.85437,-0.836462 3.42715,0.58688 2.39728,2.169511 1.24893,4.058598 -3.73311,6.141124 -3.20891,1.341345 -4.80467,1.455608 -8.99571,0.644134 z M 132,78.7 c 0,-3.479521 -4.72401,-4.833132 -7.42857,-2.128571 C 122.00415,79.138709 122.73984,80 127.5,80 c 3.02564,0 4.5,-0.425926 4.5,-1.3 z m 45.41519,16.878588 C 172.3235,93.361667 170,89.519099 170,83.315481 c 0,-9.89379 5.03758,-15.022208 13.78736,-14.035981 6.80743,0.767296 10.46863,4.920632 10.9505,12.422445 0.45178,7.033541 -1.95959,11.657101 -7.22764,13.858231 -4.20176,1.755608 -6.09721,1.759065 -10.09503,0.01841 z m 9.7034,-9.929621 c 1.12663,-4.21263 -0.77844,-9.52549 -3.67643,-10.252839 -1.3608,-0.34154 -3.10644,-0.08971 -3.89087,0.561303 -1.90571,1.581604 -2.86439,6.340545 -2.03656,10.109635 1.27644,5.811572 8.01626,5.518158 9.60386,-0.418099 z m 31.2537,9.432714 c -3.32757,-1.51105 -4.46533,-2.758437 -5.86938,-6.434901 -2.77973,-7.278601 -0.89305,-14.218602 4.81091,-17.696553 3.93069,-2.396711 8.95381,-2.495923 12.75267,-0.251878 C 233.0788,72.477763 236,78.297946 236,82.520236 236,84.967848 235.8884,85 227.39301,85 c -7.4376,0 -8.52452,0.214909 -8,1.581787 0.33385,0.869984 0.60699,1.781121 0.60699,2.024751 0,0.24363 1.14652,0.878871 2.54783,1.411648 1.82158,0.692563 3.50936,0.566933 5.92105,-0.440735 3.09931,-1.294976 3.51963,-1.247628 5.17642,0.583106 1.74746,1.930924 1.72771,2.049475 -0.63879,3.834534 -2.22059,1.67499 -6.51045,3.038995 -9.38151,2.982947 -0.61875,-0.01208 -2.98247,-0.86544 -5.25271,-1.896357 z M 228,78.7 c 0,-3.479521 -4.72401,-4.833132 -7.42857,-2.128571 C 218.00415,79.138709 218.73984,80 223.5,80 c 3.02564,0 4.5,-0.425926 4.5,-1.3 z m 17.5,17.629431 C 242.62532,95.5764 238,90.940895 238,88.812909 c 0,-2.655712 6.08408,-2.509177 7.76793,0.187091 0.80712,1.292401 2.33202,2 4.31009,2 2.53433,0 3.00609,-0.357217 2.74153,-2.075857 -0.23374,-1.518445 -1.78319,-2.569516 -5.77029,-3.914293 -2.99791,-1.011139 -6.03541,-2.638012 -6.75,-3.615272 -3.866,-5.287061 1.31456,-12.397748 9.02747,-12.39084 4.10612,0.0037 10.67327,3.018459 10.67327,4.899776 0,0.513101 0.27314,1.644715 0.60699,2.514699 0.95232,2.481702 -6.06582,2.12296 -8.62991,-0.441131 -1.63322,-1.63322 -2.41549,-1.812819 -4.06076,-0.932296 -3.14399,1.682609 -1.79451,3.270152 4.63715,5.455214 4.04256,1.3734 6.33607,2.804959 7.3205,4.569294 1.80619,3.237145 0.85327,7.408685 -2.13985,9.367514 -2.51842,1.648169 -9.21346,2.683893 -12.23412,1.892623 z m 87.87229,-1.24775 c -3.32757,-1.51105 -4.46533,-2.758437 -5.86938,-6.434901 -2.77973,-7.278601 -0.89305,-14.218602 4.81091,-17.696553 3.93069,-2.396711 8.95381,-2.495923 12.75267,-0.251878 C 348.0788,72.477763 351,78.297946 351,82.520236 351,84.967848 350.8884,85 342.39301,85 c -7.4376,0 -8.52452,0.214909 -8,1.581787 0.33385,0.869984 0.60699,1.781121 0.60699,2.024751 0,0.24363 1.14652,0.878871 2.54783,1.411648 1.82158,0.692563 3.50936,0.566933 5.92105,-0.440735 3.09931,-1.294976 3.51963,-1.247628 5.17642,0.583106 1.74746,1.930924 1.72771,2.049475 -0.63879,3.834534 -2.22059,1.67499 -6.51045,3.038995 -9.38151,2.982947 -0.61875,-0.01208 -2.98247,-0.86544 -5.25271,-1.896357 z M 343,78.7 c 0,-3.479521 -4.72401,-4.833132 -7.42857,-2.128571 C 333.00415,79.138709 333.73984,80 338.5,80 c 3.02564,0 4.5,-0.425926 4.5,-1.3 z m 42.01391,16.602363 c -3.41085,-1.763467 -6.38365,-5.895096 -5.39391,-7.496529 1.05264,-1.703209 6.3044,-0.815615 7.41126,1.252569 1.37616,2.571386 7.27027,2.403662 7.76705,-0.221021 0.23585,-1.246106 -1.06087,-2.062501 -5.1762,-3.258861 C 383.95594,83.93132 380,80.371915 380,76.920905 c 0,-0.995158 1.04875,-3.028626 2.33056,-4.518818 1.86932,-2.173211 3.41227,-2.799143 7.7962,-3.162692 4.8311,-0.400633 5.83758,-0.140283 8.66944,2.242569 C 403.22779,75.210907 403.10105,78 398.5,78 396.575,78 395,77.565833 395,77.035184 395,75.562867 391.34534,73.93025 389.57244,74.610575 388.7076,74.942446 388,76.035508 388,77.039601 c 0,1.834651 0.8624,2.282175 6.62442,3.437615 4.52477,0.907339 7.59222,4.557574 7.1971,8.564493 -0.62698,6.358198 -9.92214,9.820548 -16.80761,6.260654 z M 38,78.091025 V 60 l 7.25,0.0056 c 3.9875,0.0031 8.917031,0.468567 10.954514,1.034445 6.913409,1.920085 9.925563,9.107877 5.900079,14.079139 -1.87607,2.316848 -1.869956,2.370978 0.59925,5.305462 3.098687,3.68258 2.620082,8.704868 -1.193263,12.521626 -2.355711,2.35782 -3.355488,2.579915 -13.031024,2.894776 L 38,96.18205 Z M 55.065741,88.964816 C 57.22786,87.807686 57.63712,84.03712 55.8,82.2 55.14,81.54 52.665,81 50.3,81 H 46 v 4.5 c 0,4.491994 0.0063,4.5 3.565741,4.5 1.961158,0 4.436158,-0.465833 5.5,-1.035184 z M 54.954319,73.555042 c 0.659565,-0.794727 1.052165,-2.482227 0.872445,-3.75 C 55.545417,67.820377 54.8398,67.457637 50.75,67.195209 L 46,66.890418 v 4.054791 C 46,74.987792 46.011675,75 49.877555,75 c 2.161118,0 4.408397,-0.639625 5.076764,-1.444958 z M 98,82.5 V 69 h 3.5 c 1.925,0 3.5,0.465833 3.5,1.035184 0,0.713578 0.60093,0.713578 1.93426,0 C 107.9981,69.465833 109.7981,69 110.93426,69 112.62844,69 113,69.629538 113,72.5 113,75.370462 112.62844,76 110.93426,76 105.77994,76 105,77.450352 105,87.035184 V 96 H 101.5 98 Z M 143,77 V 58 h 3.5 3.5 v 7.056704 7.056704 l 2.22251,-1.556704 c 2.29419,-1.606914 6.39914,-2.022857 9.23269,-0.935523 C 164.70625,70.868727 166,75.517085 166,85.95034 V 96 H 162.5 159 V 88.0651 C 159,78.348397 157.90432,75 154.72475,75 150.7207,75 150,76.784687 150,86.7 V 96 H 146.5 143 Z M 199.22793,77.25 199.5,58.5 203.25,58.189635 207,57.879269 V 76.939635 96 h -4.02207 -4.02206 z m 90.29976,17.5 C 289.00484,93.154185 282,61.252885 282,60.46756 c 0,-0.32356 1.6875,-0.448626 3.75,-0.277925 L 289.5,60.5 l 2.17486,10.841532 c 1.19618,5.962842 2.36683,11.033488 2.60144,11.268102 0.23461,0.234614 1.21141,-3.205871 2.17065,-7.645522 3.27044,-15.136509 3.26355,-15.121682 6.86625,-14.772757 L 306.5,60.5 l 2.4625,10.75 c 1.35437,5.9125 2.74443,10.75 3.08902,10.75 0.34458,0 1.48646,-4.8375 2.5375,-10.75 L 316.5,60.5 l 3.75,-0.310365 c 2.56401,-0.212208 3.75,0.09952 3.75,0.985663 0,0.712816 -1.66847,8.861287 -3.70772,18.107714 L 316.58456,96.094696 312.59122,95.797348 308.59789,95.5 305.9998,85.020498 c -1.42895,-5.763727 -2.85567,-10.038727 -3.1705,-9.5 -0.31483,0.538726 -1.61879,5.367002 -2.89768,10.729502 L 297.60635,96 h -3.83456 c -2.18256,0 -4.011,-0.538524 -4.2441,-1.25 z M 355,77 V 58 h 3.5 3.5 v 19 19 h -3.5 -3.5 z m 13,0 V 58 h 3.5 3.5 v 19 19 h -3.5 -3.5 z"
       id="path14" />
    <path
       style="fill:#0289cb;fill-opacity:1;fill-rule:evenodd;stroke:#2f455c;stroke-width:0"
       d="m 62.394377,226.17686 c -10.134091,-2.51109 -20.17028,-10.42413 -24.561295,-19.36537 -2.273121,-4.62866 -2.483427,-5.93482 -2.483427,-15.42404 0,-9.81038 0.143832,-10.62682 2.678202,-15.20254 3.623636,-6.54235 12.892885,-14.90461 19.092276,-17.2241 6.910707,-2.58562 19.942656,-2.55642 26.93663,0.0604 6.701891,2.5075 15.722561,10.90693 19.077037,17.76324 3.51657,7.1876 4.06373,19.84458 1.18797,27.48046 -3.98385,10.57817 -15.796726,20.02609 -27.851959,22.27596 -5.994346,1.11873 -8.33605,1.05817 -14.075434,-0.36397 z m 25.287115,-10.8216 c 1.714269,-1.25351 1.709992,-1.34026 -0.266728,-5.40895 -1.104917,-2.27425 -2.409466,-4.135 -2.898998,-4.135 -1.269973,0 -3.640829,4.91175 -3.640829,7.54278 0,3.25852 3.6282,4.32524 6.806555,2.00117 z m -1.323881,-11.34694 h 4.433724 l -0.005,-3.83133 c -0.0072,-5.49674 -1.561319,-10.32454 -3.836558,-11.91817 -1.123815,-0.78716 -3.913362,-1.38474 -6.500772,-1.39262 -4.94302,-0.0151 -6.164978,-0.52057 -7.048802,-2.91604 -0.351187,-0.95184 -1.517048,-1.57761 -2.939213,-1.57761 -1.489204,0 -2.215967,-0.41493 -1.973737,-1.12687 0.37391,-1.09895 5.0452,-1.3918 9.55568,-0.59906 2.726267,0.47916 4.910162,-2.37011 2.832032,-3.69488 -1.499716,-0.95603 -21.95621,-1.18934 -27.270095,-0.31101 -2.571541,0.42505 -3.38059,0.98323 -3.38059,2.33232 0,1.63406 0.420355,1.72476 5.344888,1.15321 5.594624,-0.64933 9.467737,-0.0136 8.588106,1.4097 -0.284372,0.46012 -1.156504,0.83659 -1.93807,0.83659 -0.781567,0 -2.360939,1.01417 -3.509714,2.25372 -1.696418,1.83047 -2.943294,2.25373 -6.639183,2.25373 H 47.51978 v 5.40895 5.40894 h 6.153293 c 5.397913,0 6.413208,0.27667 8.270559,2.25373 2.667914,2.83986 4.0328,2.82786 8.217638,-0.0722 4.162343,-2.88451 7.44669,-2.66509 7.828026,0.52297 0.451463,3.77433 1.026065,4.72207 2.516225,4.15024 0.780102,-0.29935 3.413543,-0.54428 5.85209,-0.54428 z"
       id="path16" />
    <path
       style="fill:#7eb341;fill-opacity:1;fill-rule:evenodd;stroke:#2f455c;stroke-width:0"
       d="m 57.029952,321.09698 c -6.778303,-2.74873 -12.632147,-7.5069 -16.664483,-13.54537 -4.782038,-7.16116 -5.766066,-11.14371 -5.247309,-21.23688 0.531898,-10.34885 3.07115,-16.0354 10.149837,-22.73013 14.667366,-13.87178 35.812227,-13.87178 50.479593,0 7.07869,6.69473 9.61794,12.38128 10.14984,22.73013 0.52075,10.13197 -0.46305,14.07239 -5.33495,21.36811 -7.033684,10.53303 -16.925855,15.36363 -31.276509,15.2731 -5.629452,-0.0355 -9.032151,-0.55162 -12.256019,-1.85896 z m 31.403629,-10.02316 c 0.749009,-1.19632 0.578014,-2.30926 -0.727162,-4.73282 -0.93855,-1.74278 -2.228076,-3.1687 -2.865615,-3.1687 -2.669501,0 -5.292259,7.38802 -3.322149,9.35813 1.15123,1.15123 5.909752,0.14886 6.914926,-1.45661 z m 2.510794,-15.56419 c -0.547805,-10.14834 -3.376457,-13.07161 -12.648507,-13.07161 -3.134561,0 -4.594048,-0.40155 -4.964051,-1.36577 -0.288252,-0.75117 -1.573078,-1.76459 -2.855169,-2.25204 -3.855703,-1.46593 -1.70397,-2.51201 4.30279,-2.09182 6.228134,0.43567 9.142336,-0.61736 7.172171,-2.59162 -0.830912,-0.83264 -5.421539,-1.24634 -16.112016,-1.45199 -15.370793,-0.29567 -17.941198,0.18957 -15.64705,2.95385 0.817038,0.98447 2.817077,1.39044 6.850069,1.39044 3.132857,0 5.946822,0.40567 6.253256,0.90149 0.306434,0.49582 -0.274694,0.90149 -1.291394,0.90149 -1.0167,0 -2.355237,0.81135 -2.974526,1.80299 -0.914252,1.46394 -2.102301,1.80298 -6.318074,1.80298 H 47.51978 v 5.40894 5.40895 h 5.284985 c 4.51496,0 5.780825,0.39404 8.688121,2.70447 4.287166,3.40701 5.991436,3.39615 9.527744,-0.0607 1.646546,-1.60955 3.385727,-2.55143 4.16152,-2.25373 0.733037,0.2813 1.705287,0.51145 2.160554,0.51145 0.455268,0 0.827761,1.1494 0.827761,2.55422 0,1.40482 0.287062,2.84129 0.637916,3.19214 0.350854,0.35085 3.279729,0.51988 6.508611,0.37562 l 5.870695,-0.26229 z"
       id="path18" />
    <path
       style="fill:#e75200;fill-opacity:1;fill-rule:evenodd;stroke:#2f455c;stroke-width:0"
       d="m 59.141911,416.50301 c -10.304036,-4.36569 -16.376329,-9.72104 -19.978554,-17.61973 -1.574644,-3.45277 -1.928003,-5.99265 -1.965276,-14.12607 -0.04052,-8.84116 0.20737,-10.45401 2.286135,-14.87459 6.349182,-13.5018 21.687183,-21.59062 36.119552,-19.04841 11.508934,2.02726 21.373085,9.2105 25.736702,18.74191 3.10989,6.79288 3.88955,18.6634 1.68555,25.66289 -4.200359,13.33955 -16.134981,21.9055 -31.979706,22.9531 -5.832665,0.38564 -7.599115,0.135 -11.904403,-1.6891 z m 4.466696,-18.3126 7.373733,-6.85034 7.03938,6.85034 c 3.87166,3.76769 7.415924,6.85033 7.876144,6.85032 0.460219,-2e-5 2.00287,-1.4615 3.428114,-3.24773 l 2.59135,-3.24771 -7.020642,-7.06206 -7.020641,-7.06206 6.457645,-7.16333 c 3.551705,-3.93983 6.457645,-7.48911 6.457645,-7.88729 0,-1.46183 -3.971879,-4.89688 -5.662168,-4.89688 -0.958056,0 -4.660037,2.82954 -8.226625,6.28787 l -6.484706,6.28787 -6.693639,-6.73862 c -3.681502,-3.70623 -7.131302,-6.73861 -7.666223,-6.73861 -0.534921,0 -2.26434,1.33276 -3.843153,2.96168 l -2.870569,2.96167 7.126559,7.08476 7.126559,7.08477 -6.752741,7.58986 c -6.330814,7.11563 -6.674127,7.71302 -5.494564,9.56098 0.691996,1.08412 1.557062,2.47822 1.922366,3.09799 1.233588,2.0929 2.939222,1.14844 10.336176,-5.72348 z"
       id="path20" />
    <path
       style="fill:#545454;fill-opacity:1;fill-rule:evenodd;stroke:#2f455c;stroke-width:0"
       d="M 38.504873,78.268545 V 60.461601 l 8.868858,0.35622 c 9.914945,0.398237 12.629848,1.540621 15.124092,6.363957 1.428439,2.762296 1.405452,3.052946 -0.529982,6.701276 -2.016714,3.801543 -2.017574,3.821834 -0.268902,6.344255 2.726249,3.932552 3.030866,5.548102 1.663269,8.821221 -1.953187,4.674635 -4.338985,5.679959 -15.16631,6.390758 L 38.504873,96.07549 Z M 55.432609,89.01714 c 2.064389,-1.445954 2.585447,-4.395035 1.171246,-6.629014 -0.472773,-0.746829 -2.884171,-1.443632 -5.845885,-1.68924 l -5.041171,-0.418053 v 4.468837 c 0,2.45786 0.270447,4.739284 0.600994,5.06983 1.129549,1.12955 7.107985,0.60328 9.114816,-0.80236 z m -0.31455,-15.338617 c 1.702444,-1.702443 1.8396,-4.337488 0.289765,-5.567005 -0.619775,-0.491681 -3.0538,-1.100028 -5.408944,-1.351883 l -4.282081,-0.457917 v 4.396717 4.396717 h 3.992315 c 2.427391,0 4.547613,-0.555296 5.408945,-1.416629 z"
       id="path22" />
    <path
       style="fill:#545454;fill-opacity:1;fill-rule:evenodd;stroke:#2f455c;stroke-width:0"
       d="M 77.848227,95.822225 C 67.582681,92.673334 65.917764,75.976024 75.381358,71.08221 c 8.887791,-4.596056 19.205243,3.059335 17.840119,13.237094 -1.061537,7.91435 -8.624288,13.573122 -15.37325,11.502921 z m 5.747494,-6.135156 c 1.449768,-1.173951 2.141229,-2.906611 2.452424,-6.145273 0.36837,-3.833695 0.106336,-4.890577 -1.746614,-7.04476 -2.780583,-3.23262 -5.755742,-2.52035 -7.565599,1.811248 -1.919275,4.593472 -1.599329,8.258812 0.94281,10.800951 2.645989,2.645988 3.28576,2.708466 5.916979,0.577834 z"
       id="path24" />
    <path
       style="fill:#545454;fill-opacity:1;fill-rule:evenodd;stroke:#2f455c;stroke-width:0"
       d="M 98.00326,82.836976 V 69.844514 l 7.21193,0.0779 7.21192,0.0779 v 2.569954 c 0,2.130009 -0.45951,2.661855 -2.68425,3.106804 -4.13308,0.826616 -4.87041,2.459817 -5.27374,11.681465 l -0.37048,8.470896 h -3.04769 -3.04769 z"
       id="path26" />
    <path
       style="fill:#545454;fill-opacity:1;fill-rule:evenodd;stroke:#2f455c;stroke-width:0"
       d=""
       id="path28" />
    <path
       style="fill:#545454;fill-opacity:1;fill-rule:evenodd;stroke:#2f455c;stroke-width:0"
       d="m 124.56337,95.790041 c -1.50608,-0.447916 -3.92133,-2.049175 -5.36721,-3.558354 -2.20914,-2.30585 -2.68414,-3.641062 -2.97496,-8.362639 -0.29369,-4.768141 -0.023,-6.094317 1.78831,-8.760762 2.64643,-3.895872 5.4987,-5.391615 10.31416,-5.408789 3.21188,-0.01145 4.17661,0.484997 6.98656,3.595271 2.72759,3.019122 3.26011,4.270776 3.26011,7.662671 v 4.054111 h -7.60947 c -8.15697,0 -9.78184,0.825025 -7.21372,3.662768 1.81657,2.007285 8.36755,2.432275 10.14188,0.657948 0.84998,-0.849977 1.41526,-0.761199 2.58196,0.405501 1.2779,1.277904 1.31489,1.709218 0.25598,2.985123 -2.3322,2.810129 -8.1203,4.269647 -12.1636,3.067151 z m 7.24579,-17.990417 c 0,-1.930353 -0.45933,-2.292338 -3.20129,-2.522829 -2.28951,-0.192457 -3.66266,0.240694 -4.82114,1.520803 -2.35449,2.601678 -1.01306,3.839627 3.82202,3.527184 3.80706,-0.246013 4.20041,-0.482482 4.20041,-2.525158 z"
       id="path30" />
    <path
       style="fill:#545454;fill-opacity:1;fill-rule:evenodd;stroke:#2f455c;stroke-width:0"
       d="m 143.0778,77.348879 v -18.48056 h 3.15521 3.15522 V 65.6295 c 0,3.718649 0.30425,6.748278 0.67612,6.73251 0.37186,-0.01577 1.46358,-0.624275 2.42603,-1.352236 1.83003,-1.38417 7.45186,-1.773128 9.15839,-0.633644 2.40853,1.608217 3.41584,5.672763 3.79462,15.311538 l 0.39855,10.141771 h -3.1866 -3.18659 l -0.30744,-9.539786 c -0.26397,-8.191222 -0.5548,-9.720461 -2.05734,-10.817889 -2.19544,-1.603508 -3.31522,-1.607114 -5.48891,-0.01768 -1.46487,1.071138 -1.77687,2.695772 -2.07753,10.817889 l -0.35379,9.557464 h -3.05297 -3.05297 z"
       id="path32" />
    <path
       style="fill:#545454;fill-opacity:1;fill-rule:evenodd;stroke:#2f455c;stroke-width:0"
       d="m 177.74741,95.036212 c -5.02613,-2.283046 -7.02499,-5.643287 -7.01924,-11.799861 0.0102,-10.929771 7.42027,-16.247563 17.03959,-12.228354 6.1028,2.549909 8.59898,13.644307 4.4832,19.925776 -1.38374,2.111869 -7.68936,5.757559 -9.95832,5.757559 -0.49582,0 -2.54117,-0.744804 -4.54523,-1.65512 z m 8.23685,-6.513345 c 1.12701,-1.245338 1.71733,-3.227008 1.71733,-5.765044 0,-4.683383 -2.32027,-7.662671 -5.9677,-7.662671 -1.7007,0 -2.89361,0.666494 -3.6304,2.028354 -1.4598,2.698239 -1.4166,10.078264 0.0695,11.868865 1.67538,2.018713 5.78292,1.771827 7.8113,-0.469504 z"
       id="path34" />
    <path
       style="fill:#545454;fill-opacity:1;fill-rule:evenodd;stroke:#2f455c;stroke-width:0"
       d="m 199.68183,77.349778 0.26086,-18.481459 h 3.11973 3.11973 v 18.48056 18.48056 l -3.38059,8.98e-4 -3.38059,8.99e-4 z"
       id="path36" />
    <path
       style="fill:#545454;fill-opacity:1;fill-rule:evenodd;stroke:#2f455c;stroke-width:0"
       d="m 219.64906,94.87792 c -12.24233,-5.465064 -9.61511,-23.71229 3.59687,-24.981793 4.21226,-0.404745 4.74179,-0.220416 7.61189,2.649683 3.06341,3.063408 5.66253,9.532859 4.3551,10.840279 -0.3754,0.375403 -4.2212,0.954552 -8.54622,1.287 -8.23897,0.633297 -9.35936,1.418476 -6.33688,4.440954 1.22165,1.221652 2.54285,1.420608 6.61046,0.995459 3.33587,-0.348667 5.44541,-0.169591 6.13586,0.520866 1.59969,1.599684 1.30956,2.167475 -1.87763,3.674599 -5.05666,2.391145 -7.23448,2.499183 -11.54945,0.572953 z m 8.03657,-15.174473 c 0.95154,-0.602969 0.99415,-1.194923 0.19365,-2.690667 -1.98462,-3.708292 -10.22558,-1.705535 -8.75467,2.1276 0.57692,1.503409 6.46583,1.890729 8.56102,0.563067 z"
       id="path38" />
    <path
       style="fill:#545454;fill-opacity:1;fill-rule:evenodd;stroke:#2f455c;stroke-width:0"
       d="m 241.93402,93.129587 c -1.81401,-1.592727 -3.29821,-3.46235 -3.29821,-4.154716 0,-1.932802 4.87462,-1.540498 6.76118,0.544133 1.0248,1.132391 2.77656,1.802981 4.70988,1.802981 2.67656,0 3.04061,-0.264652 2.79012,-2.028354 -0.21336,-1.502308 -1.86119,-2.785955 -6.35379,-4.949551 -6.33942,-3.053009 -7.84689,-5.179015 -6.55606,-9.246066 0.84196,-2.652769 5.65993,-5.40466 9.46656,-5.407035 4.10106,-0.0026 9.11632,2.599271 10.04918,5.213338 1.08989,3.054122 -1.46725,3.590855 -5.90642,1.239735 -4.38771,-2.323861 -5.35083,-2.401208 -6.88478,-0.55291 -1.50537,1.813855 -0.10683,3.176043 5.44649,5.304948 8.01171,3.071344 10.3646,7.996735 5.84735,12.240476 -1.6984,1.595556 -3.58218,2.224063 -7.51968,2.508877 -4.8827,0.353183 -5.48646,0.175565 -8.55182,-2.515856 z"
       id="path40" />
    <path
       style="fill:#545454;fill-opacity:1;fill-rule:evenodd;stroke:#2f455c;stroke-width:0"
       d="m 262.97606,97.873068 c 0,-1.170372 10.96834,-32.156835 12.29086,-34.722668 1.29461,-2.511706 3.93597,-3.419528 3.93597,-1.352773 0,0.61948 -2.67058,9.138567 -5.93463,18.931306 -5.52988,16.590671 -6.08322,17.804978 -8.11341,17.804978 -1.19833,0 -2.17879,-0.29738 -2.17879,-0.660843 z"
       id="path42" />
    <path
       style="fill:#545454;fill-opacity:1;fill-rule:evenodd;stroke:#2f455c;stroke-width:0"
       d="m 291.06542,95.035497 c -0.94824,-0.601005 -8.25656,-30.35734 -8.25656,-33.617151 0,-0.410875 1.39108,-0.747045 3.0913,-0.747045 3.04162,0 3.10804,0.08331 4.13244,5.183571 2.43677,12.132089 3.8044,17.446369 4.35697,16.930201 0.32418,-0.302815 1.80642,-5.300875 3.29388,-11.1068 2.67646,-10.446881 2.73316,-10.559029 5.47401,-10.82676 l 2.76954,-0.270534 2.63941,10.637676 c 1.45167,5.850723 3.04177,10.637677 3.53355,10.637677 0.66946,0 4.26213,-15.074898 4.88771,-20.508913 0.11908,-1.034373 6.38827,-0.804546 6.38827,0.234192 0,1.016477 -6.13686,30.147206 -6.90019,32.754152 -0.40417,1.380304 -1.04393,1.557433 -3.77972,1.046465 -1.81126,-0.338293 -3.42216,-0.741668 -3.57978,-0.896388 -0.15762,-0.15472 -1.37464,-4.479502 -2.70447,-9.610626 -1.32984,-5.131124 -2.82356,-9.329317 -3.31938,-9.329317 -0.49582,0 -2.07306,4.563797 -3.50497,10.141771 -2.48436,9.67771 -2.71123,10.141139 -4.9582,10.127966 -1.2951,-0.0076 -2.89881,-0.358654 -3.56381,-0.780137 z"
       id="path44" />
    <path
       style="fill:#545454;fill-opacity:1;fill-rule:evenodd;stroke:#2f455c;stroke-width:0"
       d="m 334.15947,94.702575 c -4.79407,-2.417508 -7.17564,-6.533169 -7.1728,-12.395497 0.006,-13.033781 16.42818,-17.597291 21.68205,-6.025278 2.89819,6.383463 2.49399,7.48799 -2.98089,8.145599 -2.60305,0.312663 -6.25409,0.572005 -8.11341,0.576315 -2.70333,0.0063 -3.38059,0.34693 -3.38059,1.700434 0,3.034323 2.30817,4.014614 8.0417,3.415341 3.98442,-0.416453 5.55976,-0.23917 6.35146,0.714774 0.83736,1.008959 0.60188,1.564071 -1.15061,2.712345 -1.89339,1.240597 -7.24267,3.184321 -8.7635,3.184321 -0.27008,0 -2.30111,-0.912759 -4.51341,-2.028354 z m 8.59852,-16.902951 c 0,-1.930353 -0.45933,-2.292338 -3.2013,-2.522829 -2.28951,-0.192457 -3.66265,0.240694 -4.82113,1.520803 -2.35449,2.601678 -1.01306,3.839627 3.82202,3.527184 3.80706,-0.246013 4.20041,-0.482482 4.20041,-2.525158 z"
       id="path46" />
    <path
       style="fill:#545454;fill-opacity:1;fill-rule:evenodd;stroke:#2f455c;stroke-width:0"
       d="m 355.82961,77.348879 v -18.48056 h 2.70447 2.70447 v 18.48056 18.48056 h -2.70447 -2.70447 z"
       id="path48" />
    <path
       style="fill:#545454;fill-opacity:1;fill-rule:evenodd;stroke:#2f455c;stroke-width:0"
       d="m 368.45048,77.348879 v -18.48056 h 3.15521 3.15522 v 18.48056 18.48056 h -3.15522 -3.15521 z"
       id="path50" />
    <path
       style="fill:#545454;fill-opacity:1;fill-rule:evenodd;stroke:#2f455c;stroke-width:0"
       d="m 383.35644,93.031579 c -1.75262,-1.538823 -3.18659,-3.364342 -3.18659,-4.056708 0,-1.932802 4.87462,-1.540498 6.76119,0.544133 1.94217,2.146078 6.07504,2.363719 7.70022,0.405501 1.52333,-1.835509 0.0845,-3.18204 -5.64623,-5.284158 -3.88171,-1.423859 -8.81518,-5.787587 -8.81518,-7.797158 0,-0.449956 1.14887,-2.103905 2.55304,-3.675442 2.14398,-2.39953 3.34851,-2.923308 7.51784,-3.269061 4.58229,-0.38 5.21906,-0.188483 8.26485,2.48576 3.90776,3.431053 4.07592,4.284606 0.99642,5.057513 -1.66465,0.417799 -2.86855,0.04747 -4.34019,-1.335061 -2.6308,-2.471507 -6.55971,-2.534957 -7.32672,-0.118322 -0.82791,2.608509 -0.069,3.310123 4.85904,4.492348 4.3427,1.041798 7.7971,3.671835 8.31883,6.333607 1.01546,5.180759 -3.40771,9.014908 -10.39983,9.014908 -3.26704,0 -4.69884,-0.55204 -7.25669,-2.79786 z"
       id="path52" />
    <path
       style="fill:#545454;fill-opacity:1;fill-rule:evenodd;stroke:#2f455c;stroke-width:0"
       d="m 160.67679,202.09739 c -0.84075,-4.60315 0.68134,-22.66839 1.94517,-23.08678 0.58499,-0.19366 3.83036,3.91228 7.21193,9.12431 3.38157,5.21203 6.43838,9.49589 6.7929,9.51969 0.35452,0.0238 0.76019,-4.0819 0.90149,-9.12379 0.30894,-11.02377 2.00099,-13.18323 3.00243,-3.83184 0.60582,5.657 -0.0237,18.24027 -0.95935,19.1759 -0.84153,0.84154 -4.37938,-3.18275 -9.7892,-11.13519 l -5.51933,-8.11342 -0.45075,9.1994 c -0.47607,9.71621 -2.09253,13.98087 -3.13529,8.27172 z"
       id="path54" />
    <path
       style="fill:#545454;fill-opacity:1;fill-rule:evenodd;stroke:#2f455c;stroke-width:0"
       d="m 192.07801,204.46545 c -3.74019,-1.57263 -5.72866,-4.63272 -5.72866,-8.8159 0,-7.49907 5.2168,-11.80701 11.2469,-9.28747 2.15388,0.89995 3.2816,2.16018 4.06958,4.54779 0.59953,1.81657 0.825,3.5679 0.50106,3.89184 -0.32393,0.32394 -3.4069,0.74821 -6.85102,0.94282 -5.20212,0.29395 -6.26205,0.61815 -6.26205,1.91537 0,3.65195 5.87329,5.80776 9.92096,3.64151 1.07753,-0.57667 1.88352,-0.58919 2.2263,-0.0346 0.29551,0.47815 -1.0079,1.65766 -2.89646,2.62114 -3.00503,1.53305 -3.78246,1.60515 -6.22661,0.57746 z m 6.89221,-12.8977 c 0,-2.2962 -1.77388,-3.78626 -4.50745,-3.78626 -2.73358,0 -4.50746,1.49006 -4.50746,3.78626 0,1.34623 0.76794,1.62269 4.50746,1.62269 3.73951,0 4.50745,-0.27646 4.50745,-1.62269 z"
       id="path56" />
    <path
       style="fill:#545454;fill-opacity:1;fill-rule:evenodd;stroke:#2f455c;stroke-width:0"
       d="m 222.61274,203.42899 c -0.47561,-0.92092 -1.57724,-3.90558 -2.44805,-6.63259 -0.87081,-2.72701 -1.85894,-5.26342 -2.19584,-5.63648 -0.33689,-0.37305 -1.52362,2.15055 -2.63717,5.60801 -2.12885,6.60987 -3.40983,8.28951 -4.75055,6.22903 -1.06148,-1.63134 -5.30909,-15.38438 -5.27048,-17.06497 0.0655,-2.85234 3.5005,2.99153 4.57155,7.7775 1.31175,5.86154 2.40969,5.38703 4.82682,-2.08606 2.48135,-7.67163 3.77669,-7.36008 6.51513,1.56701 2.07744,6.77227 2.69069,7.18282 3.87439,2.59377 2.33585,-9.05589 3.6984,-11.89971 4.81318,-10.04578 0.55218,0.91832 -4.33298,17.26371 -5.512,18.44273 -0.62863,0.62863 -1.19752,0.38918 -1.78698,-0.75217 z"
       id="path58" />
    <path
       style="fill:#545454;fill-opacity:1;fill-rule:evenodd;stroke:#2f455c;stroke-width:0"
       d="m 160.7216,298.15108 c -0.31981,-1.27421 -0.30425,-6.9536 0.0346,-12.62087 l 0.61604,-10.30412 h 5.90343 c 5.17831,0 6.21401,0.29755 8.43187,2.42239 3.18897,3.05523 3.23362,6.20855 0.1337,9.44416 l -2.39472,2.49954 2.89833,5.43783 c 4.18289,7.84789 1.63516,7.25375 -3.74184,-0.87261 -1.66914,-2.52261 -2.7597,-3.21132 -5.43931,-3.43501 l -3.35159,-0.27979 v 3.58665 c 0,6.12683 -1.93839,8.71211 -3.09048,4.12183 z m 13.23225,-12.77768 c 2.09512,-1.87498 2.00653,-5.34687 -0.1661,-6.50963 -0.95905,-0.51326 -3.59591,-0.93321 -5.85969,-0.93321 h -4.11598 v 5.06056 5.06056 l 4.28208,-0.63322 c 2.35515,-0.34827 4.99201,-1.26854 5.85969,-2.04506 z"
       id="path60" />
    <path
       style="fill:#545454;fill-opacity:1;fill-rule:evenodd;stroke:#2f455c;stroke-width:0"
       d="m 186.27123,299.3123 c -3.60801,-2.77015 -4.56601,-8.64579 -2.16628,-13.28636 4.08497,-7.89946 14.88727,-4.59745 14.06759,4.30012 -0.0697,0.75702 -1.80509,1.1314 -5.28738,1.14067 -6.66614,0.0178 -8.14233,0.87698 -6.75141,3.92971 1.20866,2.65273 6.18639,3.99608 9.07632,2.44944 2.77542,-1.48536 3.3226,-1.18789 1.50642,0.81897 -1.87214,2.0687 -8.09199,2.45423 -10.44526,0.64745 z m 8.06263,-10.4651 c 1.69639,-1.07488 0.51694,-4.29445 -1.79467,-4.89894 -3.73168,-0.97586 -8.7723,3.17744 -5.995,4.93969 1.52147,0.96539 6.24072,0.9407 7.78967,-0.0408 z"
       id="path62" />
    <path
       style="fill:#545454;fill-opacity:1;fill-rule:evenodd;stroke:#2f455c;stroke-width:0"
       d="m 204.15379,299.94692 c -0.99106,-0.99833 -0.82686,-25.42275 0.17508,-26.04198 0.47612,-0.29426 0.97266,1.37056 1.12686,3.77813 l 0.27567,4.3042 4.50745,-0.23616 c 2.4791,-0.12989 5.05912,0.12443 5.73338,0.56517 1.76079,1.15095 3.49364,16.04631 2.03629,17.50367 -1.78186,1.78185 -2.78234,-0.94552 -2.79766,-7.62652 -0.0145,-6.33739 -1.27819,-8.85392 -4.44593,-8.85392 -3.04411,0 -4.62003,3.07627 -5.29103,10.32834 -0.3542,3.82808 -0.94824,6.65366 -1.32011,6.27907 z"
       id="path64" />
    <path
       style="fill:#545454;fill-opacity:1;fill-rule:evenodd;stroke:#2f455c;stroke-width:0"
       d="m 226.03833,299.76656 c -2.32717,-1.88443 -2.92829,-6.67082 -1.07104,-8.52807 0.58071,-0.58071 2.9763,-1.27711 5.32354,-1.54756 3.28041,-0.37797 4.3449,-0.89505 4.60139,-2.23513 0.36247,-1.89378 -2.01549,-4.11629 -4.40419,-4.11629 -0.82101,0 -2.41852,0.80292 -3.55002,1.78427 -1.13151,0.98135 -2.47717,1.52476 -2.99037,1.20759 -0.54692,-0.33802 0.0817,-1.44954 1.51887,-2.68576 2.74375,-2.36007 7.38092,-2.79374 9.93139,-0.92879 1.7972,1.31414 3.13901,6.96427 3.19865,13.46893 l 0.0393,4.28208 -3.38059,0.0123 c -1.85932,0.007 -4.21521,0.23648 -5.2353,0.51048 -1.10886,0.29784 -2.71002,-0.19441 -3.98159,-1.22406 z m 7.5526,-2.27908 c 2.48859,-1.81971 1.57706,-5.51585 -1.44634,-5.86476 -3.20268,-0.3696 -6.12965,1.26496 -6.12965,3.42309 0,3.1348 4.6004,4.61747 7.57599,2.44167 z"
       id="path66" />
    <path
       style="fill:#545454;fill-opacity:1;fill-rule:evenodd;stroke:#2f455c;stroke-width:0"
       d="m 247.42535,300.70669 -4.28208,-0.33765 v -10.6558 c 0,-11.81225 0.63197,-16.52806 2.14808,-16.02911 0.55392,0.18229 1.12975,2.42933 1.27962,4.99341 0.25668,4.39167 1.16953,5.80317 2.43199,3.76048 0.62384,-1.0094 4.04408,-1.19569 6.27004,-0.3415 2.27249,0.87203 4.0971,5.25052 4.0971,9.83173 0,3.40787 -0.48204,4.65285 -2.63513,6.80595 -1.44932,1.44931 -3.17342,2.562 -3.83133,2.47263 -0.65792,-0.0894 -3.12315,-0.31443 -5.47829,-0.50014 z m 6.76367,-3.83056 c 3.00295,-2.36212 3.71248,-5.58231 2.08713,-9.47232 -1.13814,-2.72396 -1.74067,-3.16281 -4.34242,-3.16281 -4.1449,0 -5.1845,1.379 -5.1845,6.87708 0,7.06123 2.91496,9.31727 7.43979,5.75805 z"
       id="path68" />
    <path
       style="fill:#545454;fill-opacity:1;fill-rule:evenodd;stroke:#2f455c;stroke-width:0"
       d="m 264.77904,276.27783 c 0,-1.26862 1.01483,-1.85315 2.33669,-1.34591 0.6924,0.2657 1.03447,0.84626 0.76015,1.29012 -0.62921,1.01809 -3.09684,1.06254 -3.09684,0.0558 z"
       id="path70" />
    <path
       style="fill:#545454;fill-opacity:1;fill-rule:evenodd;stroke:#2f455c;stroke-width:0"
       d="m 265.68053,291.00218 c 0,-6.15181 0.32212,-9.37298 0.90149,-9.01491 1.17725,0.72758 1.17725,17.30224 0,18.02982 -0.57937,0.35807 -0.90149,-2.8631 -0.90149,-9.01491 z"
       id="path72" />
    <path
       style="fill:#545454;fill-opacity:1;fill-rule:evenodd;stroke:#2f455c;stroke-width:0"
       d="m 274.69544,287.44942 c 0,-8.14889 0.34178,-13.12482 0.90149,-13.12482 0.55789,0 0.90149,4.79022 0.90149,12.56767 0,7.40601 -0.37025,12.79649 -0.90149,13.12482 -0.58522,0.36169 -0.90149,-4.04735 -0.90149,-12.56767 z"
       id="path74" />
    <path
       style="fill:#545454;fill-opacity:1;fill-rule:evenodd;stroke:#2f455c;stroke-width:0"
       d=""
       id="path76" />
    <path
       style="fill:#545454;fill-opacity:1;fill-rule:evenodd;stroke:#2f455c;stroke-width:0"
       d="m 283.91606,300.18584 c -0.57109,-0.57109 -0.80915,-16.71613 -0.2673,-18.12817 0.42392,-1.10472 2.31232,-0.89365 2.69465,0.30119 0.42246,1.32024 0.42246,16.03346 0,17.3537 -0.35224,1.1008 -1.56363,1.337 -2.42735,0.47328 z"
       id="path78" />
    <path
       style="fill:#545454;fill-opacity:1;fill-rule:evenodd;stroke:#2f455c;stroke-width:0"
       d="m 296.135,301.17315 c -2.12352,-0.85536 -2.58579,-2.3998 -2.83545,-9.4732 -0.25113,-7.11533 -0.51676,-7.94259 -2.6289,-8.18747 -2.00679,-0.23267 -1.79732,-1.58496 0.33441,-2.15897 1.87553,-0.50503 1.83257,-0.4381 2.55609,-3.98211 0.15715,-0.76977 0.47196,-1.00621 1.20028,-0.90149 0.70714,0.10167 1.19695,0.71745 1.72633,2.1703 0.47437,1.30187 1.16443,2.23896 1.92666,2.61638 1.45528,0.72058 1.52491,1.68171 0.1734,2.39344 -0.55779,0.29374 -1.1632,0.75726 -1.34533,1.03003 -0.43177,0.64664 -0.43177,12.06261 0,12.71802 0.18213,0.27647 0.78754,0.6451 1.34533,0.81918 1.22584,0.38255 1.31586,1.64599 0.18988,2.66499 -0.91895,0.83164 -1.21842,0.8646 -2.6427,0.2909 z"
       id="path80" />
    <path
       style="fill:#545454;fill-opacity:1;fill-rule:evenodd;stroke:#2f455c;stroke-width:0"
       d="m 307.71542,300.88754 c -1.09726,-0.44349 -3.18388,-2.54065 -3.90826,-3.928 -0.83919,-1.60723 -0.52273,-2.94752 1.0726,-4.54285 1.8032,-1.8032 3.58653,-2.62739 6.89236,-3.1854 2.68503,-0.45322 2.94159,-0.59437 3.07032,-1.68919 0.20777,-1.76688 -0.62548,-2.94706 -2.43313,-3.44617 -1.96046,-0.54131 -2.75997,-0.28774 -4.33043,1.37342 -1.33869,1.41602 -2.65815,1.64504 -3.51681,0.61042 -1.36444,-1.64406 2.38732,-4.28414 6.59611,-4.64163 3.1147,-0.26456 5.41295,0.54496 6.27392,2.20989 0.7658,1.48089 1.43035,6.61648 1.67048,12.90931 l 0.15911,4.16939 h -2.77717 c -1.52745,0 -3.97323,0.0977 -5.43508,0.21704 -1.46185,0.11937 -2.96216,0.0941 -3.33402,-0.0562 z m 6.31602,-3.68066 c 0.73459,-0.59483 1.02049,-1.33195 1.05702,-2.72529 0.0573,-2.18312 -0.51921,-2.75244 -2.79747,-2.76286 -3.66154,-0.0167 -6.35809,2.86343 -4.84414,5.17401 0.63771,0.97326 1.07471,1.12952 3.15887,1.12952 1.66202,0 2.73381,-0.2551 3.42572,-0.81538 z"
       id="path82" />
    <path
       style="fill:#545454;fill-opacity:1;fill-rule:evenodd;stroke:#2f455c;stroke-width:0"
       d="m 327.6291,300.13407 c -1.88626,-1.94613 -2.32504,-3.62325 -2.37955,-9.09539 -0.0542,-5.44069 -0.33348,-6.58911 -1.77752,-7.30904 -0.60906,-0.30365 -1.08711,-0.76165 -1.06232,-1.01778 0.11405,-1.17828 0.21653,-1.36762 0.74373,-1.37408 1.18954,-0.0146 1.85449,-0.88993 2.10565,-2.77194 0.22481,-1.68455 0.42147,-1.97266 1.42621,-2.08946 1.44496,-0.16797 2.09753,0.57729 2.29101,2.61639 0.12253,1.29139 0.39357,1.65715 1.50175,2.02654 2.19352,0.73117 2.60352,1.10995 1.99505,1.84311 -0.29031,0.34979 -0.89417,0.63599 -1.34193,0.63599 -1.90219,0 -2.23111,1.08813 -2.22383,7.35681 0.004,3.2671 0.15592,6.16249 0.33806,6.43421 0.18214,0.27171 0.89764,0.63272 1.59001,0.80223 1.72356,0.42199 2.07366,1.56967 0.79473,2.60528 -1.46394,1.18543 -2.35225,1.03826 -4.00105,-0.66287 z"
       id="path84" />
    <path
       style="fill:#545454;fill-opacity:1;fill-rule:evenodd;stroke:#2f455c;stroke-width:0"
       d="m 341.14222,300.45264 c -4.14073,-2.06341 -6.09692,-6.53058 -5.05583,-11.54551 0.98678,-4.75329 4.08279,-7.56245 8.33468,-7.56245 4.23212,0 6.22911,1.67051 7.73532,6.4707 0.78042,2.48714 0.78366,2.67192 0.0561,3.20393 -0.4844,0.35421 -3.04692,0.65137 -6.87723,0.79753 -3.35783,0.12813 -6.22986,0.35769 -6.3823,0.51013 -0.55222,0.55221 1.44624,4.04555 2.77949,4.8586 1.67641,1.02232 5.5499,1.12192 6.80197,0.17491 1.10318,-0.83441 2.19633,-0.86619 2.84652,-0.0828 0.66715,0.80387 -0.307,1.67864 -3.55064,3.18844 -3.10085,1.44334 -3.76724,1.44199 -6.68807,-0.0135 z m 8.03175,-12.45946 c -0.0344,-3.48551 -5.70626,-5.3291 -8.24444,-2.67981 -2.52055,2.63088 -1.31436,3.66073 4.31044,3.68028 3.79658,0.0132 3.94364,-0.0242 3.934,-1.00047 z"
       id="path86" />
    <path
       style="fill:#545454;fill-opacity:1;fill-rule:evenodd;stroke:#2f455c;stroke-width:0"
       d="m 360.678,300.7717 c -4.511,-2.03309 -6.4931,-9.92892 -3.80462,-15.15587 0.63447,-1.23353 1.85149,-2.72034 2.70447,-3.30401 1.40448,-0.96103 1.88068,-1.03683 5.04417,-0.80291 l 3.49327,0.2583 v -3.11177 c 0,-1.71147 0.19782,-3.63205 0.43959,-4.26797 0.58633,-1.54216 2.14046,-1.54216 2.72679,0 0.24754,0.65108 0.43959,6.65729 0.43959,13.74774 v 12.59152 l -2.14104,0.003 c -1.17758,0.002 -3.45947,0.1033 -5.07089,0.22563 -1.61141,0.12234 -3.33551,0.0396 -3.83133,-0.18387 z m 6.37175,-3.33663 c 1.03362,-1.03362 1.41805,-10.92855 0.4747,-12.21866 -0.36218,-0.49531 -1.40541,-0.89984 -2.69564,-1.04526 -3.80762,-0.42918 -5.72842,1.93346 -5.72842,7.04611 0,2.89829 0.52192,4.73699 1.72056,6.06148 0.61437,0.67886 1.24123,0.80065 3.33973,0.64886 1.42087,-0.10277 2.72095,-0.32441 2.88907,-0.49253 z"
       id="path88" />
    <path
       style="fill:#545454;fill-opacity:1;fill-rule:evenodd;stroke:#2f455c;stroke-width:0"
       d="m 160.61212,396.64706 c -0.36543,-1.36439 -0.36187,-10.67342 0.007,-18.74053 l 0.29431,-6.43346 7.70477,0.12303 7.70477,0.12303 0.15213,1.07589 c 0.0837,0.59173 -0.11917,1.24784 -0.45075,1.45802 -0.33158,0.21017 -3.18902,0.38523 -6.34987,0.38903 l -5.747,0.007 v 4.28208 4.28208 h 4.53708 c 4.84303,0 6.28081,0.41273 6.28081,1.80298 0,1.39026 -1.43778,1.80299 -6.28081,1.80299 h -4.53708 l -0.0449,4.16939 c -0.0578,5.36064 -0.34348,6.38504 -1.82965,6.56006 -0.8933,0.1052 -1.22728,-0.10374 -1.44095,-0.90149 z"
       id="path90" />
    <path
       style="fill:#545454;fill-opacity:1;fill-rule:evenodd;stroke:#2f455c;stroke-width:0"
       d="m 182.97917,397.11019 c -1.60025,-1.15382 -2.82563,-3.30257 -2.82301,-4.95027 0.003,-1.6557 1.60097,-3.86927 3.47391,-4.8111 0.93939,-0.47238 3.10269,-0.96635 4.80734,-1.0977 1.88682,-0.14539 3.24613,-0.47631 3.47452,-0.84586 0.48473,-0.78431 0.0408,-2.63872 -0.8867,-3.70358 -1.05965,-1.21665 -4.68321,-0.82296 -6.98963,0.75939 -2.8573,1.9603 -4.68005,1.43856 -2.89635,-0.82904 2.19617,-2.79198 7.61013,-4.12968 10.99307,-2.7162 2.6341,1.1006 3.37778,3.48017 3.6806,11.77695 l 0.25345,6.9442 -2.20894,0.003 c -1.21492,0.001 -3.83163,0.11939 -5.81491,0.26201 -3.2855,0.23626 -3.73548,0.16592 -5.06335,-0.79151 z m 7.85713,-3.18926 c 1.20738,-1.10235 1.76297,-3.29792 1.05148,-4.15522 -1.54252,-1.85862 -7.09375,-0.97523 -7.8767,1.25346 -1.21289,3.45252 3.85984,5.6092 6.82522,2.90176 z"
       id="path92" />
    <path
       style="fill:#545454;fill-opacity:1;fill-rule:evenodd;stroke:#2f455c;stroke-width:0"
       d="m 201.62995,396.64706 c -0.47411,-1.77016 -0.32517,-16.58352 0.17617,-17.52027 0.58167,-1.08686 2.03362,-1.13581 2.46356,-0.0831 0.50578,1.23844 0.77304,12.66427 0.36638,15.6634 -0.33506,2.47108 -0.46859,2.71629 -1.54734,2.84141 -0.91176,0.10576 -1.24398,-0.0995 -1.45877,-0.90149 z"
       id="path94" />
    <path
       style="fill:#545454;fill-opacity:1;fill-rule:evenodd;stroke:#2f455c;stroke-width:0"
       d="m 201.49607,373.95607 c -0.29213,-0.76129 1.01109,-2.46232 1.88646,-2.46232 1.05236,0 1.66812,1.21498 1.12762,2.22492 -0.58919,1.10091 -2.6213,1.26096 -3.01408,0.2374 z"
       id="path96" />
    <path
       style="fill:#545454;fill-opacity:1;fill-rule:evenodd;stroke:#2f455c;stroke-width:0"
       d=""
       id="path98" />
    <path
       style="fill:#545454;fill-opacity:1;fill-rule:evenodd;stroke:#2f455c;stroke-width:0"
       d="m 210.63852,396.62281 c -0.45442,-1.69565 -0.31697,-24.08243 0.15549,-25.32509 0.50444,-1.32677 1.42675,-1.48994 2.32238,-0.41087 0.48949,0.58976 0.61862,3.20075 0.61862,12.50819 0,6.46956 -0.15599,12.32064 -0.34665,13.0024 -0.44861,1.60417 -2.33882,1.75909 -2.74984,0.22537 z"
       id="path100" />
    <path
       style="fill:#545454;fill-opacity:1;fill-rule:evenodd;stroke:#2f455c;stroke-width:0"
       d="m 223.61952,397.23455 c -3.82807,-1.73867 -6.16711,-6.57023 -5.22046,-10.78346 1.06251,-4.72887 4.71457,-8.19616 8.63294,-8.19616 4.29293,0 7.88761,3.8898 7.57721,8.19929 l -0.13991,1.94249 -5.72659,0.29883 c -3.14962,0.16436 -5.93861,0.42988 -6.19775,0.59004 -0.78576,0.48562 -0.52856,2.74791 0.4545,3.99767 1.72608,2.19435 5.65054,2.58075 8.87002,0.87332 1.1292,-0.59886 1.57797,-0.65158 1.99517,-0.23438 1.26835,1.26836 -3.31748,4.14574 -6.60728,4.14574 -0.99164,0 -2.62867,-0.37502 -3.63785,-0.83338 z m 7.03682,-11.55368 c 0.80948,-0.50028 0.43563,-2.50545 -0.67401,-3.61509 -1.65612,-1.65612 -4.24094,-1.52871 -6.33787,0.31242 -1.8732,1.6447 -1.9606,3.09177 -0.21843,3.61643 1.20308,0.36231 6.50896,0.13206 7.23031,-0.31376 z"
       id="path102" />
    <path
       style="fill:#545454;fill-opacity:1;fill-rule:evenodd;stroke:#2f455c;stroke-width:0"
       d="m 242.50558,397.24542 c -2.42893,-1.53647 -3.87869,-4.59251 -4.11498,-8.67421 -0.1818,-3.14054 -0.0723,-3.80748 0.97767,-5.95349 1.83099,-3.74243 2.48741,-4.15211 6.4966,-4.05466 1.87246,0.0455 3.87763,0.2015 4.45593,0.34664 1.0419,0.2615 1.05145,0.2278 1.05145,-3.71125 0,-3.91926 0.37163,-5.05693 1.65189,-5.05693 1.2697,0 1.529,2.09636 1.81044,14.63691 l 0.28857,12.85855 h -2.25819 c -1.242,0 -3.75935,0.11534 -5.5941,0.25631 -2.84371,0.21849 -3.54681,0.1229 -4.76528,-0.64787 z m 5.95417,-2.51648 c 2.02362,-0.84552 2.57569,-2.27567 2.61841,-6.78298 0.05,-5.27366 -1.02272,-6.98655 -4.37531,-6.98655 -3.10992,0 -4.79626,2.58618 -4.79626,7.35556 0,3.86686 0.67785,5.66044 2.42697,6.42175 1.80315,0.78482 2.23116,0.78402 4.12619,-0.008 z"
       id="path104" />
  </g>
</svg>
